<?xml version="1.0" encoding="iso-8859-1"?>
<!-- Generator: Adobe Illustrator 19.0.0, SVG Export Plug-In . SVG Version: 6.00 Build 0)  -->
<svg version="1.1" id="Layer_1" xmlns="http://www.w3.org/2000/svg" xmlns:xlink="http://www.w3.org/1999/xlink" x="0px" y="0px"
	 viewBox="0 0 512 512" style="enable-background:new 0 0 512 512;" xml:space="preserve">
<g>
	<g>
		<g>
			<path d="M96,192c-5.896,0-10.667,4.771-10.667,10.667c0,5.896,4.771,10.667,10.667,10.667h320
				c5.896,0,10.667-4.771,10.667-10.667c0-5.896-4.771-10.667-10.667-10.667H96z"/>
			<path d="M501.333,298.667H10.667C4.771,298.667,0,303.438,0,309.333C0,315.229,4.771,320,10.667,320h490.667
				c5.896,0,10.667-4.771,10.667-10.667C512,303.438,507.229,298.667,501.333,298.667z"/>
			<path d="M416,405.333H96c-5.896,0-10.667,4.771-10.667,10.667c0,5.896,4.771,10.667,10.667,10.667h320
				c5.896,0,10.667-4.771,10.667-10.667C426.667,410.104,421.896,405.333,416,405.333z"/>
			<path d="M10.667,106.667h490.667c5.896,0,10.667-4.771,10.667-10.667s-4.771-10.667-10.667-10.667H10.667
				C4.771,85.333,0,90.104,0,96S4.771,106.667,10.667,106.667z"/>
		</g>
	</g>
</g>
<g>
</g>
<g>
</g>
<g>
</g>
<g>
</g>
<g>
</g>
<g>
</g>
<g>
</g>
<g>
</g>
<g>
</g>
<g>
</g>
<g>
</g>
<g>
</g>
<g>
</g>
<g>
</g>
<g>
</g>
</svg>
