<?xml version="1.0" encoding="iso-8859-1"?>
<!-- Generator: Adobe Illustrator 19.0.0, SVG Export Plug-In . SVG Version: 6.00 Build 0)  -->
<svg version="1.1" id="Capa_1" xmlns="http://www.w3.org/2000/svg" xmlns:xlink="http://www.w3.org/1999/xlink" x="0px" y="0px"
	 viewBox="0 0 512 512" style="enable-background:new 0 0 512 512;" xml:space="preserve">
<g>
	<g>
		<path d="M437.333,0H74.667C33.493,0,0,33.493,0,74.667v362.667C0,478.507,33.493,512,74.667,512h362.667
			C478.507,512,512,478.507,512,437.333V74.667C512,33.493,478.507,0,437.333,0z M384.021,330.667H384
			c0,3.947-2.176,7.552-5.632,9.408c-1.579,0.853-3.307,1.259-5.035,1.259c-2.069,0-4.117-0.597-5.909-1.792L320,307.925v22.741
			c0,5.888-4.779,10.667-10.667,10.667H160c-31.104,0-32-76.608-32-85.333s0.896-85.333,32-85.333h149.333
			c5.888,0,10.667,4.779,10.667,10.667v22.741l47.424-31.616c3.285-2.197,7.488-2.389,10.965-0.533
			c3.456,1.856,5.632,5.461,5.632,9.408V330.667z"/>
	</g>
</g>
<g>
</g>
<g>
</g>
<g>
</g>
<g>
</g>
<g>
</g>
<g>
</g>
<g>
</g>
<g>
</g>
<g>
</g>
<g>
</g>
<g>
</g>
<g>
</g>
<g>
</g>
<g>
</g>
<g>
</g>
</svg>
